HIERARCHY
ROOT SpineBase
{
  OFFSET 0.000000 0.000000 0.000000
  CHANNELS 6 Xposition Yposition Zposition Zrotation Xrotation Yrotation
  JOINT SpineMid
  {
    OFFSET -0.000000 31.460536 0.000000
    CHANNELS 3 Zrotation Xrotation Yrotation
    JOINT SpineShoulder
    {
      OFFSET -0.179613 23.585178 -0.368948
      CHANNELS 3 Zrotation Xrotation Yrotation
      JOINT Neck
      {
        OFFSET -0.082678 7.863634 -0.354903
        CHANNELS 3 Zrotation Xrotation Yrotation
        JOINT Head
        {
          OFFSET 1.209973 10.951624 4.566740
          CHANNELS 3 Zrotation Xrotation Yrotation
          End Site
          {
            OFFSET 0 0 0
          }
        }
      }
      JOINT ShoulderLeft
      {
        OFFSET 0.429879 -3.826062 -12.883705
        CHANNELS 3 Zrotation Xrotation Yrotation
        JOINT ElbowLeft
        {
          OFFSET 8.943583 -17.579691 -5.730055
          CHANNELS 3 Zrotation Xrotation Yrotation
          JOINT WristLeft
          {
            OFFSET 6.874113 -18.619427 1.719016
            CHANNELS 3 Zrotation Xrotation Yrotation
            JOINT HandLeft
            {
              OFFSET 1.816095 -6.748551 0.773821
              CHANNELS 3 Zrotation Xrotation Yrotation
              JOINT HandTipLeft
              {
                OFFSET 2.841241 -5.617074 1.095039
                CHANNELS 3 Zrotation Xrotation Yrotation
                End Site
                {
                  OFFSET 0 0 0
                }
              }
              JOINT ThumbLeft
              {
                OFFSET -2.741816 0.526458 -0.377892
                CHANNELS 3 Zrotation Xrotation Yrotation
                End Site
                {
                  OFFSET 0 0 0
                }
              }
            }
          }
        }
      }
      JOINT ShoulderRight
      {
        OFFSET 6.746744 -6.955044 -17.849661
        CHANNELS 3 Zrotation Xrotation Yrotation
        JOINT ElbowRight
        {
          OFFSET 4.577089 -19.570661 -0.918795
          CHANNELS 3 Zrotation Xrotation Yrotation
          JOINT WristRight
          {
            OFFSET 3.808428 -19.185146 1.877644
            CHANNELS 3 Zrotation Xrotation Yrotation
            JOINT HandRight
            {
              OFFSET 3.184449 -3.938405 1.942923
              CHANNELS 3 Zrotation Xrotation Yrotation
              JOINT HandTipRight
              {
                OFFSET 1.280828 -4.822491 -0.242247
                CHANNELS 3 Zrotation Xrotation Yrotation
                End Site
                {
                  OFFSET 0 0 0
                }
              }
              JOINT ThumbRight
              {
                OFFSET 1.100134 2.030022 -2.701367
                CHANNELS 3 Zrotation Xrotation Yrotation
                End Site
                {
                  OFFSET 0 0 0
                }
              }
            }
          }
        }
      }
    }
  }
  JOINT HipLeft
  {
    OFFSET -4.385398 2.019882 -3.996471
    CHANNELS 3 Zrotation Xrotation Yrotation
    JOINT KneeLeft
    {
      OFFSET 15.951707 -25.951692 -8.102447
      CHANNELS 3 Zrotation Xrotation Yrotation
      JOINT AnkleLeft
      {
        OFFSET 0.253323 -36.193882 -2.954083
        CHANNELS 3 Zrotation Xrotation Yrotation
        JOINT FootLeft
        {
          OFFSET -2.844712 -3.784481 -7.169475
          CHANNELS 3 Zrotation Xrotation Yrotation
          End Site
          {
            OFFSET 0 0 0
          }
        }
      }
    }
  }
  JOINT HipRight
  {
    OFFSET 4.486609 1.085987 -2.165315
    CHANNELS 3 Zrotation Xrotation Yrotation
    JOINT KneeRight
    {
      OFFSET -2.034524 -28.158524 7.607986
      CHANNELS 3 Zrotation Xrotation Yrotation
      JOINT AnkleRight
      {
        OFFSET 3.003549 -40.185497 6.003235
        CHANNELS 3 Zrotation Xrotation Yrotation
        JOINT FootRight
        {
          OFFSET -5.700011 -3.536185 -13.183173
          CHANNELS 3 Zrotation Xrotation Yrotation
          End Site
          {
            OFFSET 0 0 0
          }
        }
      }
    }
  }
}
MOTION
Frames: 14
Frame Time: 0.033333
-8.328571 70.794218 253.981956 0.000000 0.000000 -11.661917 -0.000000 0.000000 11.661917 -0.000000 0.000000 0.000000 -0.000000 0.000000 0.000000 0.000000 0.000000 0.000000 -0.000000 0.000000 0.000000 -0.000000 0.000000 0.000000 -0.000000 0.000000 0.000000 -0.000000 0.000000 0.000000 0.000000 0.000000 0.000000 0.000000 0.000000 0.000000 -0.000000 0.000000 0.000000 -0.000000 0.000000 0.000000 -0.000000 0.000000 0.000000 -0.000000 0.000000 0.000000 0.000000 0.000000 0.000000 0.000000 0.000000 0.000000 -0.000000 0.000000 11.661917 -0.000000 0.000000 0.000000 -0.000000 0.000000 0.000000 0.000000 0.000000 0.000000 -0.000000 0.000000 11.661917 -0.000000 0.000000 0.000000 -0.000000 0.000000 0.000000 0.000000 0.000000 0.000000
-8.342996 70.873771 253.953158 -0.027789 0.270106 -13.251076 0.088963 -0.256545 13.251341 -0.000000 0.000000 0.000000 -0.000000 0.000000 0.000000 0.000000 0.000000 0.000000 -0.000000 0.000000 0.000000 -0.937296 1.137511 0.344093 1.065079 0.521335 0.138300 -1.590342 -0.790350 -0.343659 0.000000 0.000000 0.000000 0.000000 0.000000 0.000000 -0.000000 0.000000 0.000000 -0.306833 -0.802809 -0.191517 -5.847410 7.114876 2.903678 5.863026 -6.574822 -1.953572 0.000000 0.000000 0.000000 0.000000 0.000000 0.000000 0.088963 -0.256545 13.251341 -0.000000 0.000000 0.000000 2.354083 -4.554829 -1.035035 0.000000 0.000000 0.000000 0.088963 -0.256545 13.251341 -0.000000 0.000000 0.000000 0.100883 -2.232640 3.482038 0.000000 0.000000 0.000000
-8.355732 70.946417 253.939753 -0.067768 0.500375 -14.805583 0.193388 -0.466443 14.806666 -0.000000 0.000000 0.000000 0.014250 1.215571 -0.139782 0.000000 0.000000 0.000000 -0.237199 0.880045 0.526097 -1.472857 1.235647 0.104531 1.981768 0.883287 0.252843 -2.944605 -1.414648 -0.684974 0.000000 0.000000 0.000000 0.000000 0.000000 0.000000 0.547382 1.069905 0.219081 -1.114629 -2.531998 -0.592549 -10.545077 12.104145 5.533092 10.227360 -11.439130 -2.846837 0.000000 0.000000 0.000000 0.000000 0.000000 0.000000 1.219269 -0.602693 14.277495 -2.123512 0.376747 0.644645 5.215220 -8.350270 -1.448955 0.000000 0.000000 0.000000 1.187209 0.369886 15.085363 -1.177268 -0.548807 -0.283498 -0.097947 -4.233329 8.309249 0.000000 0.000000 0.000000
-8.366781 71.012156 253.941741 -0.119942 0.690693 -16.298980 0.308979 -0.629267 16.301399 -0.000000 0.000000 0.000000 0.011392 1.619607 -0.182787 0.000000 0.000000 0.000000 -0.366082 1.233971 0.749644 -1.961743 1.687313 0.128052 2.749732 1.073448 0.332330 -4.066859 -1.862849 -0.989335 0.000000 0.000000 0.000000 0.000000 0.000000 0.000000 0.837334 1.460568 0.290952 -1.598431 -3.425878 -0.808745 -14.143671 15.399452 7.585313 13.441217 -14.779146 -3.107958 0.000000 0.000000 0.000000 0.000000 0.000000 0.000000 1.712601 -0.795061 15.576775 -2.905409 0.534614 0.893679 6.428336 -10.702471 -1.022987 0.000000 0.000000 0.000000 1.666911 0.614305 16.690519 -2.070671 0.190903 -0.391479 -0.681136 -6.598023 15.591359 0.000000 0.000000 0.000000
-8.376142 71.070989 253.959121 -0.184314 0.840969 -17.703476 0.431347 -0.745083 17.707634 -0.000000 0.000000 0.000000 0.001215 1.883608 -0.207232 0.000000 0.000000 0.000000 -0.501048 1.530793 0.946802 -2.286411 2.027031 0.130289 3.369388 1.083028 0.367980 -4.961048 -2.129713 -1.229598 0.000000 0.000000 0.000000 0.000000 0.000000 0.000000 1.133503 1.741990 0.335971 -2.016055 -4.041414 -0.956971 -16.749506 17.391386 8.930885 15.762400 -16.854417 -2.996303 0.000000 0.000000 0.000000 0.000000 0.000000 0.000000 2.120830 -0.925605 16.831071 -3.501946 0.676331 1.091245 6.431437 -11.167400 0.143860 0.000000 0.000000 0.000000 2.070121 0.887391 18.187092 -2.642800 0.276516 -0.493884 -3.953136 -6.787008 28.131101 0.000000 0.000000 0.000000
-8.383816 71.122914 253.991895 -0.260880 0.951135 -18.991247 -0.317509 -0.536686 18.979718 -0.230110 -0.439907 -0.039935 0.947878 1.898774 -0.169431 0.000000 0.000000 0.000000 0.323047 1.663918 1.159695 -2.447874 2.254497 0.110332 3.841133 0.906467 0.353454 -5.630626 -2.213363 -1.386292 0.000000 0.000000 0.000000 0.000000 0.000000 0.000000 2.396293 1.802815 0.399939 -2.357710 -4.365793 -1.029919 -18.475092 18.353639 9.530248 17.363703 -17.876975 -2.654513 0.000000 0.000000 0.000000 0.000000 0.000000 0.000000 2.438968 -1.003260 18.011199 -3.913852 0.804282 1.235914 5.184768 -9.690993 1.935943 0.000000 0.000000 0.000000 2.397746 1.180682 19.547024 -3.156951 0.367825 -0.581644 -15.581708 -4.227272 52.414831 0.000000 0.000000 0.000000
-8.386998 71.168825 254.042015 -0.369777 1.029113 -20.099289 -0.338073 -0.609950 20.084931 -0.284612 -0.494130 -0.049355 1.239891 1.787562 -0.177088 0.000000 0.000000 0.000000 0.331760 1.890489 1.342331 -2.336443 2.296908 0.022058 4.231501 0.609846 0.316959 -5.068562 -2.224063 -1.215781 0.000000 0.000000 0.000000 0.000000 0.000000 0.000000 3.377039 2.135553 0.425776 -3.011337 -4.548555 -1.045537 -20.043200 18.102814 8.795069 19.120091 -17.593319 -1.509652 0.000000 0.000000 0.000000 0.000000 0.000000 0.000000 2.810188 -1.023664 19.000063 -4.336884 0.955870 1.391483 0.161670 -1.793247 5.300562 0.000000 0.000000 0.000000 2.596819 1.470061 20.686384 -3.651831 0.485186 -0.647212 -50.409932 -10.000059 101.587449 0.000000 0.000000 0.000000
-8.402350 71.216616 254.093808 -0.490562 1.070198 -20.983465 -0.326043 -0.690557 20.966492 -0.317970 -0.521410 -0.056702 1.448519 1.613954 -0.156496 0.000000 0.000000 0.000000 0.345743 2.012961 1.441790 -2.081480 2.252211 -0.048620 4.087490 0.531954 0.275377 -5.710801 -2.629176 -1.633670 0.000000 0.000000 0.000000 0.000000 0.000000 0.000000 3.666469 1.995448 0.382146 -2.903708 -3.752673 -0.834962 -19.223366 16.660032 7.540369 17.300666 -14.308780 -0.932498 0.000000 0.000000 0.000000 0.000000 0.000000 0.000000 2.956554 -1.060390 19.845693 -4.342646 1.121593 1.442490 -0.363438 -2.210415 6.598318 0.000000 0.000000 0.000000 2.785470 1.776243 21.598632 -4.093823 0.663040 -0.700952 -84.966983 -5.699017 110.638385 0.000000 0.000000 0.000000
-8.406696 71.246082 254.180803 -0.591108 1.042634 -21.733370 -0.310170 -0.758379 21.713778 -0.350848 -0.555143 -0.063285 1.533591 1.197657 -0.062695 0.000000 0.000000 0.000000 0.330955 2.189877 1.536214 -1.795951 2.285965 -0.082987 4.311846 -0.356702 0.077470 -6.609147 -2.749816 -2.053676 0.000000 0.000000 0.000000 0.000000 0.000000 0.000000 4.049860 1.567398 0.252081 -2.876595 -2.766809 -0.558736 -18.825129 15.037763 5.905934 16.557850 -12.336898 -0.123401 0.000000 0.000000 0.000000 0.000000 0.000000 0.000000 2.904517 -1.021993 20.639099 -4.150620 1.223179 1.394144 -4.233367 2.334357 9.642935 0.000000 0.000000 0.000000 2.912242 2.095959 22.368702 -4.436277 0.877986 -0.736381 -107.544945 8.194598 109.795887 0.000000 0.000000 0.000000
-8.395049 71.259001 254.281176 -0.671837 0.973123 -22.347427 -0.305434 -0.803600 22.325243 -0.385021 -0.585761 -0.069267 1.355613 1.127139 0.098880 0.000000 0.000000 0.000000 0.352621 2.361598 1.601670 -1.385857 2.074113 -0.177544 4.175223 -1.774703 -0.287090 -6.839853 -0.849310 -1.304584 0.000000 0.000000 0.000000 0.000000 0.000000 0.000000 3.983288 1.302001 0.178605 -2.558004 -2.156286 -0.404418 -17.483848 13.006567 4.082558 14.447795 -9.313394 0.727232 0.000000 0.000000 0.000000 0.000000 0.000000 0.000000 2.500547 -1.038248 21.419134 -3.352440 1.238980 1.183857 -8.399371 6.621344 12.700696 0.000000 0.000000 0.000000 2.985535 2.412544 22.995453 -4.667290 0.956697 -0.765008 -118.542213 23.521907 108.026376 0.000000 0.000000 0.000000
-8.369202 71.272075 254.372035 -0.727485 0.891044 -22.867303 -0.308369 -0.826044 22.843013 -0.411848 -0.610145 -0.073772 1.051450 1.123129 0.289538 0.000000 0.000000 0.000000 0.421625 2.538899 1.648021 -1.096181 1.814121 -0.271363 4.195482 -3.225034 -0.625683 -7.158813 1.552702 -0.273737 0.000000 0.000000 0.000000 0.000000 0.000000 0.000000 4.053917 1.421131 0.178795 -2.545834 -2.157213 -0.407689 -15.918035 11.895400 3.424587 13.264277 -9.054340 0.500021 0.000000 0.000000 0.000000 0.000000 0.000000 0.000000 2.496720 -0.823841 21.992750 -3.393843 1.132194 1.123537 -8.835842 6.857449 13.277783 0.000000 0.000000 0.000000 2.991647 2.660296 23.516028 -4.677628 0.815616 -0.774666 -117.677820 40.434347 101.161975 0.000000 0.000000 0.000000
-8.366905 71.326502 254.430139 -0.804619 0.827114 -23.203558 -0.297985 -0.845542 23.177342 -0.416021 -0.639188 -0.077449 0.847709 1.179718 0.422728 0.000000 0.000000 0.000000 0.496586 2.725431 1.694932 -0.916796 1.604140 -0.348951 4.422384 -4.884418 -0.977234 -8.081249 3.665686 0.500600 0.000000 0.000000 0.000000 0.000000 0.000000 0.000000 3.568083 1.374676 0.179574 -2.121351 -2.225468 -0.452603 -12.877331 10.934386 3.462276 10.041842 -9.553271 -0.804533 0.000000 0.000000 0.000000 0.000000 0.000000 0.000000 2.425395 -0.705703 22.394701 -3.217635 1.066099 1.043037 -7.493030 5.009578 12.424204 0.000000 0.000000 0.000000 3.124867 2.868528 23.877712 -4.677044 1.283061 -0.746488 -115.724090 47.762723 96.730323 0.000000 0.000000 0.000000
-8.309090 71.309105 254.522551 -0.820425 0.723943 -23.316131 -0.283834 -0.858230 23.288695 -0.411805 -0.658472 -0.077974 0.572980 1.215474 0.555589 0.000000 0.000000 0.000000 0.502949 2.964112 1.748521 -0.763224 1.387806 -0.430286 4.426965 -6.377108 -1.324081 -7.550482 4.444783 0.770761 0.000000 0.000000 0.000000 0.000000 0.000000 0.000000 3.500674 1.568357 0.191614 -2.105296 -2.420914 -0.504872 -10.932140 9.858555 3.030693 9.451533 -10.439093 -1.359433 0.000000 0.000000 0.000000 0.000000 0.000000 0.000000 1.991018 -0.685689 22.677764 -2.575830 0.989087 0.837808 -7.845118 4.808656 12.799071 0.000000 0.000000 0.000000 3.077299 3.044412 23.982637 -4.738060 1.461882 -0.735178 -114.809377 51.911508 94.357499 0.000000 0.000000 0.000000
-8.205589 71.224399 254.627266 -0.809452 0.615618 -23.232347 -0.290883 -0.874078 23.203530 -0.413623 -0.672314 -0.078371 0.480085 1.343743 0.599823 0.000000 0.000000 0.000000 0.503697 3.097314 1.750726 -0.677013 1.389462 -0.420666 4.449720 -7.743175 -1.644376 -7.765610 5.184743 0.948118 0.000000 0.000000 0.000000 0.000000 0.000000 0.000000 2.909356 1.663289 0.218923 -1.741234 -2.788052 -0.629917 -7.350767 9.240405 3.572221 5.966136 -13.446141 -3.617411 0.000000 0.000000 0.000000 0.000000 0.000000 0.000000 1.939346 -0.400411 22.673469 -2.780288 0.784153 0.758338 -7.809028 4.676981 13.067958 0.000000 0.000000 0.000000 2.944079 3.107363 23.871391 -4.758955 1.741593 -0.700980 -114.166341 54.354565 92.855556 0.000000 0.000000 0.000000
